<?xml version="1.0" encoding="UTF-8"?>
<svg width="40px" height="40px" viewBox="0 0 40 40" version="1.1" xmlns="http://www.w3.org/2000/svg" xmlns:xlink="http://www.w3.org/1999/xlink">
    <!-- Generator: Sketch 51.2 (57519) - http://www.bohemiancoding.com/sketch -->
    <title>ic-launcher40</title>
    <desc>Created with Sketch.</desc>
    <defs>
        <path d="M9.6145695,0 L30.3854305,0 C33.7286258,-2.25694893e-16 34.9409492,0.348096042 36.1631714,1.00174764 C37.3853936,1.65539924 38.3446008,2.61460639 38.9982524,3.83682861 C39.651904,5.05905083 40,6.27137423 40,9.6145695 L40,30.3854305 C40,33.7286258 39.651904,34.9409492 38.9982524,36.1631714 C38.3446008,37.3853936 37.3853936,38.3446008 36.1631714,38.9982524 C34.9409492,39.651904 33.7286258,40 30.3854305,40 L9.6145695,40 C6.27137423,40 5.05905083,39.651904 3.83682861,38.9982524 C2.61460639,38.3446008 1.65539924,37.3853936 1.00174764,36.1631714 C0.348096042,34.9409492 1.50463262e-16,33.7286258 -2.58960077e-16,30.3854305 L0,9.6145695 C-1.50463262e-16,6.27137423 0.348096042,5.05905083 1.00174764,3.83682861 C1.65539924,2.61460639 2.61460639,1.65539924 3.83682861,1.00174764 C5.05905083,0.348096042 6.27137423,2.25694893e-16 9.6145695,-3.88440115e-16 Z" id="path-1"></path>
    </defs>
    <g id="ic-launcher40" stroke="none" stroke-width="1" fill="none" fill-rule="evenodd">
        <g id="launcher">
            <mask id="mask-2" fill="white">
                <use xlink:href="#path-1"></use>
            </mask>
            <use id="Mask" fill="#FFFFFF" fill-rule="nonzero" xlink:href="#path-1"></use>
            <g id="-g-launcher" stroke-width="1" fill-rule="evenodd" mask="url(#mask-2)">
                <g transform="translate(7.500000, 6.562500)" fill-rule="nonzero">
                    <polygon id="Path-4" fill="#FDD831" points="0 9.11830357 0.239616613 19.9962798 12.5399361 26.875 12.5399361 26.1551339 0.798722045 19.7563244 0.638977636 9.35825893"></polygon>
                    <polygon id="Path-6" fill="#FDD831" points="4.87220447 17.1968006 12.5399361 20.9561012 19.8083067 17.3567708 22.2044728 18.6365327 12.5399361 23.515625 2.55591054 18.3165923"></polygon>
                    <polygon id="Path-15" fill="#FFFFFF" points="0.479233227 9.27827381 2.55591054 10.4780506 2.55591054 18.3165923 12.5399361 23.515625 12.5399361 26.3151042 0.638977636 19.7563244"></polygon>
                    <polygon id="Path-7" fill="#F1A11E" points="2.55591054 18.3165923 2.47603834 10.3980655 4.95207668 11.5978423 4.87220447 17.1968006"></polygon>
                    <polygon id="Path-8" fill="#F8B428" points="19.8083067 17.3567708 19.9680511 11.5978423 22.5239617 10.3180804 22.2044728 18.6365327"></polygon>
                    <polygon id="Path-2" fill="#F1A11E" points="12.5399361 12.3976935 25 5.99888393 24.5207668 20.4761905 12.5399361 26.875 12.5399361 23.515625 22.2044728 18.6365327 22.5239617 10.3180804 12.5399361 15.7570685"></polygon>
                    <polygon id="Path-3" fill="#F8B428" points="0 6.07886905 12.5399361 12.3976935 12.5399361 15.7570685 0 9.11830357"></polygon>
                    <polygon id="Path-9" fill="#F1A11E" points="15.0159744 1.11979167 14.9361022 3.359375 12.9392971 4.31919643 10.8626198 3.19940476"></polygon>
                    <polygon id="Path-10" fill="#F1A11E" points="19.8881789 3.51934524 19.7284345 6.07886905 18.0511182 6.87872024 15.6549521 5.67894345"></polygon>
                    <polygon id="Path-5" fill="#FDD831" points="0 6.07886905 12.5399361 0 15.0159744 1.11979167 10.8626198 3.19940476 12.9392971 4.31919643 17.2523962 2.23958333 19.8881789 3.51934524 15.6549521 5.67894345 18.0511182 6.87872024 22.3642173 4.6391369 25 5.99888393 12.5399361 12.3976935"></polygon>
                    <polygon id="Path-11" fill="#F1A11E" points="8.06709265 4.55915179 5.4313099 5.91889881 7.58785942 7.03869048 8.06709265 6.79873512"></polygon>
                    <polygon id="Path-12" fill="#F1A11E" points="12.8594249 7.1186756 10.2236422 8.47842262 12.5399361 9.75818452 12.8594249 9.59821429"></polygon>
                    <polygon id="Path-13" fill="#FFFFFF" points="8.06709265 4.55915179 10.2236422 5.67894345 8.06709265 6.79873512"></polygon>
                    <polygon id="Path-14" fill="#FFFFFF" points="12.8594249 7.1186756 15.1757188 8.3984375 12.8594249 9.59821429"></polygon>
                </g>
            </g>
        </g>
    </g>
</svg>