<svg width="40" height="40" xmlns="http://www.w3.org/2000/svg" xmlns:xlink="http://www.w3.org/1999/xlink"><defs><path d="M9.615 0h20.77c3.344 0 4.556.348 5.778 1.002a6.815 6.815 0 0 1 2.835 2.835C39.652 5.059 40 6.27 40 9.615v20.77c0 3.344-.348 4.556-1.002 5.778a6.815 6.815 0 0 1-2.835 2.835C34.941 39.652 33.73 40 30.385 40H9.615c-3.344 0-4.556-.348-5.778-1.002a6.815 6.815 0 0 1-2.835-2.835C.348 34.941 0 33.73 0 30.385V9.615C0 6.27.348 5.059 1.002 3.837a6.815 6.815 0 0 1 2.835-2.835C5.059.348 6.27 0 9.615 0z" id="a"/></defs><g fill="none" fill-rule="evenodd"><mask id="b" fill="#fff"><use xlink:href="#a"/></mask><use fill="#FFF" fill-rule="nonzero" xlink:href="#a"/><g fill-rule="nonzero" mask="url(#b)"><path fill="#FDD831" d="M7.5 15.68l.24 10.879 12.3 6.878v-.72L8.299 26.32l-.16-10.398z"/><path fill="#FDD831" d="M12.372 23.76l7.668 3.759 7.268-3.6 2.396 1.28-9.664 4.88-9.984-5.2z"/><path fill="#FFF" d="M7.98 15.84l2.076 1.2v7.84l9.984 5.198v2.8l-11.901-6.56z"/><path fill="#F1A11E" d="M10.056 24.88l-.08-7.92 2.476 1.2-.08 5.6z"/><path fill="#F8B428" d="M27.308 23.92l.16-5.76 2.556-1.28-.32 8.319z"/><path fill="#F1A11E" d="M20.04 18.96l12.46-6.399-.48 14.478-11.98 6.398v-3.359l9.664-4.879.32-8.318-9.984 5.439z"/><path fill="#F8B428" d="M7.5 12.641l12.54 6.32v3.359L7.5 15.68z"/><path fill="#F1A11E" d="M22.516 7.682l-.08 2.24-1.997.96-2.076-1.12zm4.872 2.4l-.16 2.56-1.677.8-2.396-1.2z"/><path fill="#FDD831" d="M7.5 12.641l12.54-6.079 2.476 1.12-4.153 2.08 2.076 1.12 4.313-2.08 2.636 1.28-4.233 2.16 2.396 1.2 4.313-2.24 2.636 1.36-12.46 6.398z"/><path fill="#F1A11E" d="M15.567 11.122l-2.636 1.36 2.157 1.12.48-.24zm4.793 2.559l-2.636 1.36 2.316 1.28.32-.16z"/><path fill="#FFF" d="M15.567 11.122l2.157 1.12-2.157 1.12zm4.793 2.559l2.316 1.28-2.317 1.2z"/></g></g></svg>